<?xml version="1.0" encoding="UTF-8" standalone="no"?>
<!-- Created with Inkscape (http://www.inkscape.org/) -->

<svg
   xmlns:dc="http://purl.org/dc/elements/1.1/"
   xmlns:cc="http://creativecommons.org/ns#"
   xmlns:rdf="http://www.w3.org/1999/02/22-rdf-syntax-ns#"
   xmlns:svg="http://www.w3.org/2000/svg"
   xmlns="http://www.w3.org/2000/svg"
   xmlns:xlink="http://www.w3.org/1999/xlink"
   xmlns:sodipodi="http://sodipodi.sourceforge.net/DTD/sodipodi-0.dtd"
   xmlns:inkscape="http://www.inkscape.org/namespaces/inkscape"
   id="svg3440"
   sodipodi:docname="web.svg"
   viewBox="0 0 200 200"
   sodipodi:version="0.32"
   inkscape:output_extension="org.inkscape.output.svg.inkscape"
   inkscape:version="0.48.4 r9939"
   version="1.1"
   width="100%"
   height="100%"
   inkscape:export-filename="/usr/local/google/home/tansell/foss/timvideos/website/img/web.png"
   inkscape:export-xdpi="45"
   inkscape:export-ydpi="45">
  <defs
     id="defs3">
    <linearGradient
       id="linearGradient6001"
       inkscape:collect="always">
      <stop
         id="stop6003"
         style="stop-color:#ffffff"
         offset="0" />
      <stop
         id="stop6005"
         style="stop-color:#ffffff;stop-opacity:0"
         offset="1" />
    </linearGradient>
    <radialGradient
       id="radialGradient3968"
       gradientUnits="userSpaceOnUse"
       cy="15.716"
       cx="18.247999"
       gradientTransform="matrix(4.1401595,0,0,4.1402009,-8.6599935,-148.82129)"
       r="29.993"
       inkscape:collect="always">
      <stop
         id="stop3964"
         style="stop-color:#d3e9ff"
         offset="0" />
      <stop
         id="stop4134"
         style="stop-color:#d3e9ff"
         offset=".15517" />
      <stop
         id="stop4346"
         style="stop-color:#4074ae"
         offset=".75" />
      <stop
         id="stop3966"
         style="stop-color:#36486c"
         offset="1" />
    </radialGradient>
    <radialGradient
       id="radialGradient4120"
       gradientUnits="userSpaceOnUse"
       cy="63.965"
       cx="15.116"
       gradientTransform="scale(1.644,0.60828)"
       r="12.289"
       inkscape:collect="always">
      <stop
         id="stop4116"
         style="stop-color:#000000"
         offset="0" />
      <stop
         id="stop4118"
         style="stop-color:#000000;stop-opacity:0"
         offset="1" />
    </radialGradient>
    <radialGradient
       id="radialGradient4132"
       gradientUnits="userSpaceOnUse"
       cy="12.142"
       cx="15.601"
       gradientTransform="matrix(4.1401595,0,0,4.1402009,-8.6599935,-148.82129)"
       r="43.527"
       inkscape:collect="always">
      <stop
         id="stop4128"
         style="stop-color:#ffffff"
         offset="0" />
      <stop
         id="stop4130"
         style="stop-color:#ffffff;stop-opacity:.16495"
         offset="1" />
    </radialGradient>
    <radialGradient
       id="radialGradient5983"
       xlink:href="#linearGradient6001"
       gradientUnits="userSpaceOnUse"
       cy="12.493"
       cx="12.071"
       r="6.7175002"
       inkscape:collect="always" />
    <linearGradient
       id="linearGradient6007"
       y2="21.042"
       xlink:href="#linearGradient6001"
       gradientUnits="userSpaceOnUse"
       x2="-22.252001"
       y1="30.056999"
       x1="-25.176001"
       inkscape:collect="always" />
    <linearGradient
       id="linearGradient6011"
       y2="22.662001"
       xlink:href="#linearGradient6001"
       gradientUnits="userSpaceOnUse"
       x2="-22.114"
       y1="30.056999"
       x1="-25.176001"
       inkscape:collect="always" />
    <linearGradient
       id="linearGradient6015"
       y2="22.662001"
       xlink:href="#linearGradient6001"
       gradientUnits="userSpaceOnUse"
       x2="-22.114"
       y1="28.337999"
       x1="-22.823"
       inkscape:collect="always" />
    <linearGradient
       id="linearGradient6019"
       y2="21.336"
       xlink:href="#linearGradient6001"
       gradientUnits="userSpaceOnUse"
       x2="-21.962"
       y1="15.649"
       x1="-21.659"
       inkscape:collect="always" />
    <radialGradient
       inkscape:collect="always"
       xlink:href="#linearGradient6001"
       id="radialGradient3058"
       gradientUnits="userSpaceOnUse"
       cx="12.071"
       cy="12.493"
       r="6.7175002" />
    <radialGradient
       inkscape:collect="always"
       xlink:href="#linearGradient6001"
       id="radialGradient3060"
       gradientUnits="userSpaceOnUse"
       cx="12.071"
       cy="12.493"
       r="6.7175002" />
    <radialGradient
       inkscape:collect="always"
       xlink:href="#linearGradient6001"
       id="radialGradient3062"
       gradientUnits="userSpaceOnUse"
       cx="12.071"
       cy="12.493"
       r="6.7175002" />
    <radialGradient
       inkscape:collect="always"
       xlink:href="#radialGradient4120"
       id="radialGradient3122"
       gradientUnits="userSpaceOnUse"
       gradientTransform="scale(1.644,0.60828)"
       cx="15.116"
       cy="63.965"
       r="12.289" />
    <radialGradient
       inkscape:collect="always"
       xlink:href="#radialGradient3968"
       id="radialGradient3124"
       gradientUnits="userSpaceOnUse"
       gradientTransform="matrix(4.1401595,0,0,4.1402009,-8.6599935,-148.82129)"
       cx="18.247999"
       cy="15.716"
       r="29.993" />
    <radialGradient
       inkscape:collect="always"
       xlink:href="#radialGradient4132"
       id="radialGradient3126"
       gradientUnits="userSpaceOnUse"
       gradientTransform="matrix(4.1401595,0,0,4.1402009,-8.6599935,-148.82129)"
       cx="15.601"
       cy="12.142"
       r="43.527" />
    <linearGradient
       inkscape:collect="always"
       xlink:href="#linearGradient6001"
       id="linearGradient3128"
       gradientUnits="userSpaceOnUse"
       x1="-25.176001"
       y1="30.056999"
       x2="-22.252001"
       y2="21.042" />
    <linearGradient
       inkscape:collect="always"
       xlink:href="#linearGradient6001"
       id="linearGradient3130"
       gradientUnits="userSpaceOnUse"
       x1="-25.176001"
       y1="30.056999"
       x2="-22.114"
       y2="22.662001" />
    <radialGradient
       inkscape:collect="always"
       xlink:href="#linearGradient6001"
       id="radialGradient3132"
       gradientUnits="userSpaceOnUse"
       cx="12.071"
       cy="12.493"
       r="6.7175002" />
    <linearGradient
       inkscape:collect="always"
       xlink:href="#linearGradient6001"
       id="linearGradient3134"
       gradientUnits="userSpaceOnUse"
       x1="-22.823"
       y1="28.337999"
       x2="-22.114"
       y2="22.662001" />
    <linearGradient
       inkscape:collect="always"
       xlink:href="#linearGradient6001"
       id="linearGradient3136"
       gradientUnits="userSpaceOnUse"
       x1="-21.659"
       y1="15.649"
       x2="-21.962"
       y2="21.336" />
    <radialGradient
       inkscape:collect="always"
       xlink:href="#linearGradient6001"
       id="radialGradient3138"
       gradientUnits="userSpaceOnUse"
       cx="12.071"
       cy="12.493"
       r="6.7175002" />
    <radialGradient
       inkscape:collect="always"
       xlink:href="#linearGradient6001"
       id="radialGradient3140"
       gradientUnits="userSpaceOnUse"
       cx="12.071"
       cy="12.493"
       r="6.7175002" />
    <radialGradient
       inkscape:collect="always"
       xlink:href="#linearGradient6001"
       id="radialGradient3142"
       gradientUnits="userSpaceOnUse"
       cx="12.071"
       cy="12.493"
       r="6.7175002" />
  </defs>
  <sodipodi:namedview
     id="base"
     bordercolor="#666666"
     inkscape:pageshadow="2"
     inkscape:window-y="24"
     pagecolor="#ffffff"
     inkscape:window-height="1064"
     inkscape:grid-bbox="true"
     inkscape:zoom="5.6568542"
     inkscape:window-x="0"
     showgrid="false"
     borderopacity="0.17254902"
     inkscape:current-layer="layer1"
     inkscape:cx="77.448174"
     inkscape:cy="123.89683"
     inkscape:showpageshadow="false"
     inkscape:window-width="1916"
     inkscape:pageopacity="0"
     inkscape:document-units="px"
     inkscape:window-maximized="0" />
  <g
     id="layer1"
     inkscape:label="Layer 1"
     inkscape:groupmode="layer"
     transform="translate(0,152)">
    <g
       id="g3064"
       transform="matrix(1.0789662,0,0,1.0789662,0.68491721,-5.3104401)">
      <path
         sodipodi:cx="24.849752"
         sodipodi:cy="38.908627"
         transform="matrix(4.1402009,0,0,5.1470977,-8.6599935,-191.34944)"
         d="m 45.052803,38.908627 c 0,4.128399 -9.045214,7.475128 -20.203051,7.475128 -11.157836,0 -20.2030502,-3.346729 -20.2030502,-7.475128 0,-4.1284 9.0452142,-7.475129 20.2030502,-7.475129 11.157837,0 20.203051,3.346729 20.203051,7.475129 z"
         sodipodi:type="arc"
         style="fill:url(#radialGradient3122)"
         sodipodi:ry="7.4751287"
         sodipodi:rx="20.203051"
         id="path4112" />
      <path
         inkscape:connector-curvature="0"
         d="m 173.34324,-51.588675 c 0,44.341551 -35.94523,80.286775 -80.278498,80.286775 -44.341552,0 -80.282635,-35.945224 -80.282635,-80.286775 -0.0012,-44.337411 35.941083,-80.278495 80.282635,-80.278495 44.333268,8.3e-4 80.278498,35.941084 80.278498,80.278495 z"
         style="fill:url(#radialGradient3124);stroke:#39396c;stroke-width:4.14020109"
         id="path3214" />
      <g
         transform="matrix(4.0672091,0,0,4.0672091,-8.158698,-147.857)"
         style="fill:#204a87;fill-opacity:0.71344999"
         id="g4136">
        <g
           style="fill:#204a87"
           id="g4138">
          <g
             style="fill:#204a87"
             id="g4142">
            <path
               inkscape:connector-curvature="0"
               d="m 44.071,20.714 v 0 l -0.545,0.618 c -0.334,-0.394 -0.709,-0.725 -1.089,-1.071 l -0.836,0.123 -0.764,-0.863 v 1.068 l 0.654,0.495 0.436,0.494 0.582,-0.658 c 0.146,0.274 0.291,0.548 0.436,0.823 v 0.822 l -0.655,0.74 -1.199,0.823 -0.908,0.907 -0.582,-0.661 0.291,-0.74 -0.582,-0.658 -0.981,-2.098 -0.836,-0.945 -0.219,0.246 0.328,1.194 0.618,0.699 c 0.352,1.017 0.701,1.99 1.164,2.963 0.718,0 1.394,-0.077 2.107,-0.166 v 0.576 l -0.872,2.139 -0.8,0.904 -0.654,1.401 v 2.303 l 0.219,0.906 -0.364,0.41 -0.8,0.494 -0.836,0.699 0.691,0.782 -0.945,0.824 0.182,0.533 -1.418,1.606 h -0.945 l -0.8,0.494 H 33.64 v -0.659 l -0.217,-1.318 c -0.281,-0.826 -0.574,-1.647 -0.872,-2.467 0,-0.605 0.036,-1.205 0.072,-1.81 l 0.364,-0.823 -0.509,-0.988 0.037,-1.357 -0.692,-0.782 0.346,-1.13 -0.563,-0.639 h -0.982 l -0.327,-0.37 -0.981,0.618 -0.4,-0.454 -0.909,0.782 c -0.617,-0.7 -1.235,-1.399 -1.854,-2.098 l -0.726,-1.729 0.654,-0.986 -0.363,-0.411 0.799,-1.894 c 0.656,-0.816 1.341,-1.599 2.035,-2.385 l 1.236,-0.329 1.381,-0.165 0.945,0.248 1.345,1.356 0.473,-0.534 0.653,-0.082 1.236,0.411 h 0.946 l 0.654,-0.576 0.291,-0.411 -0.655,-0.412 -1.091,-0.082 C 35.663,17.045 35.382,16.603 35.022,16.23 l -0.364,0.164 -0.145,1.07 -0.655,-0.74 -0.144,-0.824 -0.727,-0.574 h -0.292 l 0.728,0.822 -0.291,0.74 -0.581,0.164 0.363,-0.74 -0.655,-0.328 -0.581,-0.658 -1.091,0.246 -0.145,0.328 -0.654,0.412 -0.363,0.906 -0.909,0.452 -0.4,-0.452 H 27.68 v -1.482 l 0.946,-0.494 h 0.726 l -0.146,-0.575 -0.58,-0.576 0.98,-0.206 0.545,-0.617 0.436,-0.741 h 0.801 l -0.219,-0.575 0.509,-0.329 v 0.658 l 1.09,0.246 1.09,-0.904 0.073,-0.412 0.945,-0.658 c -0.342,0.043 -0.684,0.074 -1.018,0.165 V 9.9766 l 0.363,-0.8228 h -0.363 l -0.798,0.7402 -0.219,0.412 0.219,0.576 -0.365,0.987 -0.581,-0.329 -0.508,-0.576 -0.8,0.576 -0.291,-1.316 1.381,-0.9052 V 8.8247 l 0.872,-0.5757 1.381,-0.3296 0.946,0.3296 1.744,0.3291 -0.436,0.4932 h -0.945 l 0.945,0.9877 0.727,-0.8227 0.221,-0.3618 c 0,0 2.787,2.4975 4.379,5.2305 1.593,2.733 2.341,5.955 2.341,6.609 z"
               style="fill:#204a87"
               id="path4144" />
          </g>
        </g>
        <g
           style="fill:#204a87"
           id="g4146">
          <g
             style="fill:#204a87"
             id="g4150">
            <path
               inkscape:connector-curvature="0"
               d="M 26.07,9.2363 25.997,9.7295 26.507,10.059 27.378,9.4829 26.942,8.9892 26.36,9.3188 26.07,9.2363"
               style="fill:#204a87"
               id="path4152" />
          </g>
        </g>
        <g
           style="fill:#204a87"
           id="g4154">
          <g
             style="fill:#204a87"
             id="g4158">
            <path
               inkscape:connector-curvature="0"
               d="M 26.87,5.8633 24.98,5.1226 22.8,5.3692 20.109,6.1094 19.601,6.6035 21.272,7.7549 V 8.4131 L 20.618,9.0713 21.491,10.8 22.071,10.47 22.8,9.3188 C 23.923,8.9716 24.93,8.5781 25.997,8.0844 L 26.87,5.8632"
               style="fill:#204a87"
               id="path4160" />
          </g>
        </g>
        <g
           style="fill:#204a87"
           id="g4162">
          <g
             style="fill:#204a87"
             id="g4166">
            <path
               inkscape:connector-curvature="0"
               d="m 28.833,12.775 -0.291,-0.741 -0.51,0.165 0.147,0.904 0.654,-0.328"
               style="fill:#204a87"
               id="path4168" />
          </g>
        </g>
        <g
           style="fill:#204a87"
           id="g4170">
          <g
             style="fill:#204a87"
             id="g4174">
            <path
               inkscape:connector-curvature="0"
               d="m 29.123,12.609 -0.145,0.988 0.799,-0.165 0.581,-0.575 -0.508,-0.494 c -0.171,-0.455 -0.368,-0.88 -0.582,-1.317 h -0.435 v 0.494 l 0.29,0.329 v 0.74"
               style="fill:#204a87"
               id="path4176" />
          </g>
        </g>
        <g
           style="fill:#204a87"
           id="g4178">
          <g
             style="fill:#204a87"
             id="g4182">
            <path
               inkscape:connector-curvature="0"
               d="m 18.365,28.242 -0.582,-1.152 -1.09,-0.247 -0.582,-1.562 -1.453,0.164 -1.236,-0.904 -1.309,1.151 v 0.182 C 11.717,25.759 11.23,25.744 10.878,25.527 L 10.587,24.705 V 23.799 L 9.7148,23.881 C 9.7876,23.305 9.8598,22.73 9.9331,22.154 H 9.4238 L 8.9155,22.812 8.4062,23.058 7.6791,22.648 7.6063,21.743 7.7518,20.755 8.8426,19.933 h 0.8721 l 0.145,-0.494 1.0903,0.246 0.8,0.988 0.145,-1.646 1.382,-1.152 0.508,-1.234 1.018,-0.411 0.581,-0.822 1.309,-0.248 0.654,-0.987 h -1.963 l 1.236,-0.576 h 0.872 l 1.236,-0.412 0.146,-0.492 -0.437,-0.412 -0.509,-0.165 0.146,-0.494 -0.363,-0.74 -0.873,0.328 0.146,-0.657 -1.018,-0.5765 -0.799,1.3975 0.072,0.494 -0.799,0.331 -0.51,1.069 -0.218,-0.987 -1.381,-0.577 -0.218,-0.74 1.817,-1.0701 0.8,-0.7402 0.073,-0.9048 -0.436,-0.2471 -0.582,-0.0825 -0.363,0.9053 c 0,0 -0.608,0.1191 -0.764,0.1577 -1.996,1.8397 -6.0294,5.8097 -6.9664,13.306 0.0371,0.174 0.6792,1.182 0.6792,1.182 l 1.5264,0.904 1.5264,0.412 0.6544,0.824 1.018,0.74 0.581,-0.082 0.436,0.196 v 0.133 l -0.581,1.563 -0.437,0.658 0.146,0.33 -0.363,1.233 1.308,2.386 1.308,1.153 0.582,0.822 -0.073,1.728 0.437,0.987 -0.437,1.892 c 0,0 -0.034,-0.011 0.022,0.178 0.056,0.19 2.329,1.451 2.473,1.344 0.144,-0.109 0.267,-0.205 0.267,-0.205 l -0.145,-0.41 0.581,-0.577 0.219,-0.576 0.945,-0.33 0.727,-1.81 -0.218,-0.493 0.508,-0.74 1.09,-0.248 0.582,-1.316 -0.145,-1.645 0.872,-1.234 0.145,-1.235 c -1.193,-0.591 -2.376,-1.201 -3.561,-1.81"
               style="fill:#204a87"
               id="path4184" />
          </g>
        </g>
        <g
           style="fill:#204a87"
           id="g4186">
          <g
             style="fill:#204a87"
             id="g4190">
            <path
               inkscape:connector-curvature="0"
               d="m 16.766,9.5649 0.726,0.4941 h 0.582 V 9.4829 L 17.348,9.1538 16.766,9.5649"
               style="fill:#204a87"
               id="path4192" />
          </g>
        </g>
        <g
           style="fill:#204a87"
           id="g4194">
          <g
             style="fill:#204a87"
             id="g4198">
            <path
               inkscape:connector-curvature="0"
               d="M 14.876,8.9072 14.512,9.812 h 0.727 L 15.603,8.9892 C 15.917,8.7675 16.229,8.5444 16.548,8.331 l 0.727,0.2471 c 0.484,0.3291 0.969,0.6582 1.454,0.9868 L 19.456,8.9072 18.656,8.5781 18.292,7.8374 16.911,7.6728 16.838,7.2612 16.184,7.4262 15.894,8.002 15.53,7.2613 l -0.145,0.3291 0.073,0.8228 -0.582,0.494"
               style="fill:#204a87"
               id="path4200" />
          </g>
        </g>
        <g
           style="fill:#204a87"
           id="g4202">
          <g
             style="opacity:0.75;fill:#204a87"
             id="g4204" />
          <g
             style="fill:#204a87"
             id="g4208" />
        </g>
        <g
           style="fill:#204a87"
           id="g4212">
          <g
             style="opacity:0.75;fill:#204a87"
             id="g4214" />
          <g
             style="fill:#204a87"
             id="g4218" />
        </g>
        <g
           style="fill:#204a87"
           id="g4222">
          <g
             style="fill:#204a87"
             id="g4226">
            <path
               inkscape:connector-curvature="0"
               d="M 17.492,6.8496 17.856,6.521 18.583,6.3564 C 19.081,6.1142 19.581,5.9511 20.11,5.7802 l -0.29,-0.4937 -0.939,0.1348 -0.443,0.4419 -0.731,0.106 -0.65,0.3052 -0.316,0.1528 -0.193,0.2583 0.944,0.1641"
               style="fill:#204a87"
               id="path4228" />
          </g>
        </g>
        <g
           style="fill:#204a87"
           id="g4230">
          <g
             style="fill:#204a87"
             id="g4234">
            <path
               inkscape:connector-curvature="0"
               d="m 18.728,14.666 0.437,-0.658 -0.655,-0.493 0.218,1.151"
               style="fill:#204a87"
               id="path4236" />
          </g>
        </g>
      </g>
      <path
         inkscape:connector-curvature="0"
         d="m 169.26514,-51.584535 c 0,42.0851417 -34.1194,76.204537 -76.204539,76.204537 -42.085141,0 -76.204537,-34.1193953 -76.204537,-76.204537 0.0017,-42.089282 34.119396,-76.204535 76.204537,-76.204535 42.085139,-4.2e-4 76.204539,34.115253 76.204539,76.204535 z"
         style="opacity:0.39560002;fill:none;stroke:url(#radialGradient3126);stroke-width:4.14020109"
         id="path4122" />
      <path
         inkscape:r_cx="true"
         inkscape:r_cy="true"
         sodipodi:cx="-18.561554"
         sodipodi:cy="21.041553"
         transform="matrix(4.6825672,2.5383571,-1.9730541,3.6398162,215.28761,-82.39591)"
         d="m -2.8284283,21.041553 c 0,5.223263 -7.0439603,9.457553 -15.7331257,9.457553 -8.689165,0 -15.733126,-4.23429 -15.733126,-9.457553 0,-5.223262 7.043961,-9.457552 15.733126,-9.457552 8.6891654,0 15.7331257,4.23429 15.7331257,9.457552 z"
         sodipodi:type="arc"
         style="color:#000000;fill:none;stroke:url(#linearGradient3128);stroke-width:0.88164002;stroke-linecap:round;stroke-linejoin:round"
         sodipodi:ry="9.4575529"
         sodipodi:rx="15.733126"
         id="path5991" />
      <path
         inkscape:r_cx="true"
         sodipodi:type="arc"
         sodipodi:cx="-18.561554"
         sodipodi:cy="21.041553"
         transform="matrix(3.8890149,-3.6396092,2.8290406,3.0228849,125.12646,-167.25181)"
         d="m -2.8284283,21.041553 c 0,5.223263 -7.0439603,9.457553 -15.7331257,9.457553 -8.689165,0 -15.733126,-4.23429 -15.733126,-9.457553 0,-5.223262 7.043961,-9.457552 15.733126,-9.457552 8.6891654,0 15.7331257,4.23429 15.7331257,9.457552 z"
         inkscape:r_cy="true"
         style="color:#000000;fill:none;stroke:url(#linearGradient3130);stroke-width:0.88164002;stroke-linecap:round;stroke-linejoin:round"
         sodipodi:ry="9.4575529"
         sodipodi:rx="15.733126"
         id="path6009" />
      <g
         transform="matrix(-4.3298221,3.1765691,3.1765691,4.3298221,138.80154,-240.5019)"
         inkscape:r_cx="true"
         inkscape:r_cy="true"
         id="g4933">
        <path
           inkscape:r_cx="true"
           sodipodi:type="arc"
           sodipodi:cx="12.071323"
           sodipodi:cy="12.493138"
           transform="translate(14.95,22.93)"
           d="m 18.788838,12.493138 c 0,3.709981 -3.007534,6.717515 -6.717515,6.717515 -3.7099804,0 -6.7175141,-3.007534 -6.7175141,-6.717515 0,-3.7099805 3.0075337,-6.7175142 6.7175141,-6.7175142 3.709981,0 6.717515,3.0075337 6.717515,6.7175142 z"
           inkscape:r_cy="true"
           style="color:#000000;fill:url(#radialGradient3132);fill-rule:evenodd"
           sodipodi:ry="6.7175145"
           sodipodi:rx="6.7175145"
           id="path4935" />
        <path
           inkscape:r_cx="true"
           inkscape:r_cy="true"
           sodipodi:cx="12.071323"
           sodipodi:cy="12.493138"
           transform="matrix(0.30827,0,0,0.30827,23.3,31.572)"
           d="m 18.788838,12.493138 c 0,3.709981 -3.007534,6.717515 -6.717515,6.717515 -3.7099804,0 -6.7175141,-3.007534 -6.7175141,-6.717515 0,-3.7099805 3.0075337,-6.7175142 6.7175141,-6.7175142 3.709981,0 6.717515,3.0075337 6.717515,6.7175142 z"
           sodipodi:type="arc"
           style="color:#000000;fill:#ffffff;fill-rule:evenodd"
           sodipodi:ry="6.7175145"
           sodipodi:rx="6.7175145"
           id="path4937" />
      </g>
      <path
         inkscape:r_cx="true"
         inkscape:r_cy="true"
         sodipodi:cx="-18.561554"
         sodipodi:cy="21.041553"
         transform="matrix(-5.3006992,-0.52232774,0.40599638,-4.1202451,-18.617591,18.956207)"
         d="m -2.8284283,21.041553 c 0,5.223263 -7.0439603,9.457553 -15.7331257,9.457553 -8.689165,0 -15.733126,-4.23429 -15.733126,-9.457553 0,-5.223262 7.043961,-9.457552 15.733126,-9.457552 8.6891654,0 15.7331257,4.23429 15.7331257,9.457552 z"
         sodipodi:type="arc"
         style="color:#000000;fill:none;stroke:url(#linearGradient3134);stroke-width:0.88164002;stroke-linecap:round;stroke-linejoin:round"
         sodipodi:ry="9.4575529"
         sodipodi:rx="15.733126"
         id="path6013" />
      <path
         inkscape:r_cx="true"
         inkscape:r_cy="true"
         sodipodi:cx="-18.561554"
         sodipodi:cy="21.041553"
         transform="matrix(3.8001662,-3.5563497,2.7644121,2.9537435,105.74618,-177.42635)"
         d="m -2.8284283,21.041553 c 0,5.223263 -7.0439603,9.457553 -15.7331257,9.457553 -8.689165,0 -15.733126,-4.23429 -15.733126,-9.457553 0,-5.223262 7.043961,-9.457552 15.733126,-9.457552 8.6891654,0 15.7331257,4.23429 15.7331257,9.457552 z"
         sodipodi:type="arc"
         style="color:#000000;fill:none;stroke:url(#linearGradient3136);stroke-width:0.90226001;stroke-linecap:round;stroke-linejoin:round"
         sodipodi:ry="9.4575529"
         sodipodi:rx="15.733126"
         id="path6017" />
      <g
         transform="matrix(-3.3381611,2.4490944,2.4490944,3.3381611,42.620534,-223.46497)"
         inkscape:r_cy="true"
         inkscape:r_cx="true"
         id="g5075">
        <path
           inkscape:r_cx="true"
           sodipodi:type="arc"
           sodipodi:cx="12.071323"
           sodipodi:cy="12.493138"
           transform="translate(14.95,22.93)"
           d="m 18.788838,12.493138 c 0,3.709981 -3.007534,6.717515 -6.717515,6.717515 -3.7099804,0 -6.7175141,-3.007534 -6.7175141,-6.717515 0,-3.7099805 3.0075337,-6.7175142 6.7175141,-6.7175142 3.709981,0 6.717515,3.0075337 6.717515,6.7175142 z"
           inkscape:r_cy="true"
           style="color:#000000;fill:url(#radialGradient3138);fill-rule:evenodd"
           sodipodi:ry="6.7175145"
           sodipodi:rx="6.7175145"
           id="path5077" />
        <path
           inkscape:r_cx="true"
           inkscape:r_cy="true"
           sodipodi:cx="12.071323"
           sodipodi:cy="12.493138"
           transform="matrix(0.30827,0,0,0.30827,23.3,31.572)"
           d="m 18.788838,12.493138 c 0,3.709981 -3.007534,6.717515 -6.717515,6.717515 -3.7099804,0 -6.7175141,-3.007534 -6.7175141,-6.717515 0,-3.7099805 3.0075337,-6.7175142 6.7175141,-6.7175142 3.709981,0 6.717515,3.0075337 6.717515,6.7175142 z"
           sodipodi:type="arc"
           style="color:#000000;fill:#ffffff;fill-rule:evenodd"
           sodipodi:ry="6.7175145"
           sodipodi:rx="6.7175145"
           id="path5079" />
      </g>
      <g
         transform="matrix(-3.3381611,2.4490944,2.4490944,3.3381611,47.228578,-279.23762)"
         inkscape:r_cx="true"
         inkscape:r_cy="true"
         id="g4945">
        <path
           inkscape:r_cx="true"
           inkscape:r_cy="true"
           sodipodi:cx="12.071323"
           sodipodi:cy="12.493138"
           transform="translate(14.95,22.93)"
           d="m 18.788838,12.493138 c 0,3.709981 -3.007534,6.717515 -6.717515,6.717515 -3.7099804,0 -6.7175141,-3.007534 -6.7175141,-6.717515 0,-3.7099805 3.0075337,-6.7175142 6.7175141,-6.7175142 3.709981,0 6.717515,3.0075337 6.717515,6.7175142 z"
           sodipodi:type="arc"
           style="color:#000000;fill:url(#radialGradient3140);fill-rule:evenodd"
           sodipodi:ry="6.7175145"
           sodipodi:rx="6.7175145"
           id="path4947" />
        <path
           inkscape:r_cx="true"
           sodipodi:type="arc"
           sodipodi:cx="12.071323"
           sodipodi:cy="12.493138"
           transform="matrix(0.30827,0,0,0.30827,23.3,31.572)"
           d="m 18.788838,12.493138 c 0,3.709981 -3.007534,6.717515 -6.717515,6.717515 -3.7099804,0 -6.7175141,-3.007534 -6.7175141,-6.717515 0,-3.7099805 3.0075337,-6.7175142 6.7175141,-6.7175142 3.709981,0 6.717515,3.0075337 6.717515,6.7175142 z"
           inkscape:r_cy="true"
           style="color:#000000;fill:#ffffff;fill-rule:evenodd"
           sodipodi:ry="6.7175145"
           sodipodi:rx="6.7175145"
           id="path4949" />
      </g>
      <g
         transform="matrix(-3.602927,2.6438081,2.6433526,3.603548,95.693769,-295.02421)"
         inkscape:r_cy="true"
         inkscape:r_cx="true"
         id="g4939">
        <path
           inkscape:r_cx="true"
           inkscape:r_cy="true"
           sodipodi:cx="12.071323"
           sodipodi:cy="12.493138"
           transform="translate(14.95,22.93)"
           d="m 18.788838,12.493138 c 0,3.709981 -3.007534,6.717515 -6.717515,6.717515 -3.7099804,0 -6.7175141,-3.007534 -6.7175141,-6.717515 0,-3.7099805 3.0075337,-6.7175142 6.7175141,-6.7175142 3.709981,0 6.717515,3.0075337 6.717515,6.7175142 z"
           sodipodi:type="arc"
           style="color:#000000;fill:url(#radialGradient3142);fill-rule:evenodd"
           sodipodi:ry="6.7175145"
           sodipodi:rx="6.7175145"
           id="path4941" />
        <path
           inkscape:r_cx="true"
           sodipodi:type="arc"
           sodipodi:cx="12.071323"
           sodipodi:cy="12.493138"
           transform="matrix(0.30827,0,0,0.30827,23.3,31.572)"
           d="m 18.788838,12.493138 c 0,3.709981 -3.007534,6.717515 -6.717515,6.717515 -3.7099804,0 -6.7175141,-3.007534 -6.7175141,-6.717515 0,-3.7099805 3.0075337,-6.7175142 6.7175141,-6.7175142 3.709981,0 6.717515,3.0075337 6.717515,6.7175142 z"
           inkscape:r_cy="true"
           style="color:#000000;fill:#ffffff;fill-rule:evenodd"
           sodipodi:ry="6.7175145"
           sodipodi:rx="6.7175145"
           id="path4943" />
      </g>
    </g>
  </g>
  <metadata
     id="metadata81">
    <rdf:RDF>
      <cc:Work>
        <dc:format>image/svg+xml</dc:format>
        <dc:type
           rdf:resource="http://purl.org/dc/dcmitype/StillImage" />
        <cc:license
           rdf:resource="http://creativecommons.org/licenses/publicdomain/" />
        <dc:publisher>
          <cc:Agent
             rdf:about="http://openclipart.org/">
            <dc:title>Openclipart</dc:title>
          </cc:Agent>
        </dc:publisher>
        <dc:title></dc:title>
        <dc:date>2010-03-29T09:01:28</dc:date>
        <dc:description>&quot;Internet&quot; icon from &lt;a href=&quot;http://tango.freedesktop.org/Tango_Desktop_Project&quot;&gt; Tango Project &lt;/a&gt; \n&lt;br&gt;&lt;br&gt;\nSince version 0.8.90 Tango Project icons are Public Domain: &lt;a href=&quot;http://tango.freedesktop.org/Frequently_Asked_Questions#Terms_of_Use.3F&quot;&gt; Tango Project FAQ &lt;/a&gt;</dc:description>
        <dc:source>https://openclipart.org/detail/35389/tango-applications-internet-by-warszawianka</dc:source>
        <dc:creator>
          <cc:Agent>
            <dc:title>warszawianka</dc:title>
          </cc:Agent>
        </dc:creator>
        <dc:subject>
          <rdf:Bag>
            <rdf:li>earth</rdf:li>
            <rdf:li>externalsource</rdf:li>
            <rdf:li>globe</rdf:li>
            <rdf:li>icon</rdf:li>
            <rdf:li>internet</rdf:li>
            <rdf:li>net</rdf:li>
            <rdf:li>network</rdf:li>
            <rdf:li>planet</rdf:li>
            <rdf:li>tango</rdf:li>
          </rdf:Bag>
        </dc:subject>
      </cc:Work>
      <cc:License
         rdf:about="http://creativecommons.org/licenses/publicdomain/">
        <cc:permits
           rdf:resource="http://creativecommons.org/ns#Reproduction" />
        <cc:permits
           rdf:resource="http://creativecommons.org/ns#Distribution" />
        <cc:permits
           rdf:resource="http://creativecommons.org/ns#DerivativeWorks" />
      </cc:License>
    </rdf:RDF>
  </metadata>
</svg>
